<?xml version="1.0" encoding="utf-8"?>
<!-- Generator: Adobe Illustrator 24.1.2, SVG Export Plug-In . SVG Version: 6.00 Build 0)  -->
<svg version="1.1" id="Layer_1" xmlns="http://www.w3.org/2000/svg" xmlns:xlink="http://www.w3.org/1999/xlink" x="0px" y="0px"
	 viewBox="0 0 792 792" style="enable-background:new 0 0 792 792;" xml:space="preserve">
<style type="text/css">
	.st0{fill:#AAE1FA;}
	.st1{fill-rule:evenodd;clip-rule:evenodd;}
	.st2{fill:#FFFFFF;}
	.st3{fill-rule:evenodd;clip-rule:evenodd;fill:#FFFFFF;}
	.st4{fill:#D6CD80;}
	.st5{fill-rule:evenodd;clip-rule:evenodd;fill:#BEA458;}
</style>
<g>
	<g>
		<path d="M264.8,300.7c0,0-1.8-1.9-5.3-2.1c-0.4,0-3.8,0-6,1.8c-0.4,0.4-36.4,36.6-36.4,36.6s-1.7,1.8-1.6,3.2v78
			c0,0-0.4,4.7,4.7,5.3h76.7c0,0,5.3-0.7,5.2-5.2c0-1.7,0-77.5,0-77.5s0.2-2.4-1.3-3.7L264.8,300.7z"/>
	</g>
	<g>
		<path class="st0" d="M257.6,307.4c0,0,1.4-1.2,2.8,0.1c1.5,1.4,32.7,32.5,32.7,32.5s1.1,1,1.3,2.6v70.9c0,0,0,2.1-2,2.2h-67.4
			c0,0-1.4,0.2-1.7-2l0.1-69.8c0,0-0.1-2,1.3-3.3C226,339.2,257.6,307.4,257.6,307.4"/>
		<path class="st1" d="M258.5,332.8c0,0,0.9-2,3.4-1.8c0,0,2.4,0.3,4.2,0.9c0,0,1.8,0.5,3.6,0.5c1.5,1.4,10.9,10.9,10.9,10.9
			s0,0.6-0.5,0.5c-0.6-0.1-13.1-3.4-13.1-3.4s-5.5-1.7-7.7,3.5h-1.4c0,0-1.6-5.1-8.1-3.3c-1.9,0.5-12.6,3.8-12.6,3.8
			s-0.9,0.1-0.4-0.8l11-11.3c0,0,3.7-0.5,5-0.8C253.6,331.3,256.8,330,258.5,332.8"/>
		<path d="M285.5,382.4l3.8,0c0,0,0.7,0,0.7,1.2c0,1.1,0,18.9,0,18.9s0.1,1-1.1,1h-3c0,0-0.9,0.3-0.9-1.5c0-1.7,0-18.4,0-18.4
			S284.9,382.7,285.5,382.4"/>
		<rect x="271.5" y="357.9" class="st1" width="4.8" height="1.8"/>
		<polygon class="st1" points="273.7,349.7 276.1,357.1 271.6,357.1 		"/>
		<path d="M258.7,373.1c0,0,6.8,1.9,7.7,8.8h-16C250.3,381.9,251.2,374.7,258.7,373.1"/>
		<path d="M232.9,394.7l0.9,0v-6.9H232V403c0,0,0.2,0.9-0.8,0.9c-1,0-3.1,0-3.1,0s-1.1,0.2-1.1-1.2c0-1.4,0-18.8,0-18.8
			s-0.2-1.1,1.2-1.1c1.4,0,9.2,0,9.2,0s1.3-0.1,1.3,1.2v14.2c0,0,0.2,1.1-1.2,1.1h-4.6V394.7z"/>
		<path d="M260.4,315c0.1,0.1,0.2,0.2,0.3,0.4c0.2,0.3,0.3,0.7,0,1l-0.1,0c-0.2-0.1-0.4-0.2-0.7-0.2c-0.2,0-0.4,0.1-0.5,0.3
			c0,0.7-0.1,4.2,0,4.8c0.1,0.1,0.2,0.3,0.3,0.5c0.1,0.2,0,0.5-0.3,0.7c-0.3,0.1-1.2,0.3-1.8-0.1c-0.2-0.1-0.5-0.4,0.1-1
			c0-0.6,0-4.3,0-4.7c-0.1-0.2-0.7-0.7-1.5,0l-0.1,0.1l0-0.2c0-0.1-0.1-0.4-0.1-0.7c0-0.2,0.1-0.4,0.2-0.6c-0.3,0.1-0.6,0.3-0.6,0.3
			l-0.1,0.1c0,0-0.1-0.2-0.1-0.3c0-0.1,0-0.2,0-0.4c0-0.3,0.1-0.6,0.5-0.9c-0.3-0.1-0.5-0.1-0.5-0.1c0-0.1-0.3-0.8,1-1.3
			c-0.3-0.3-0.3-0.4-0.3-0.5c0-0.1,0-0.6,2.2-1.1c0,0,1.2-0.2,2.5,1.3l0.1,0.1l-0.1,0.1c-0.2,0.1-0.3,0.2-0.4,0.3
			c0.2,0,0.6,0.2,1.1,0.8l0.1,0.1l-0.2,0c-0.2,0-0.4,0-0.5,0.1c0.1,0.1,0.2,0.2,0.3,0.4c0.2,0.3,0.4,0.8,0.2,1.4l0,0.1l-0.1-0.1
			C260.9,315.1,260.7,315,260.4,315C260.5,315,260.4,315,260.4,315"/>
		<path class="st1" d="M252.6,322.8c0,0,3.7-2.2,8.9,4.4c0.1-0.2,0.5-1.3,1.3-0.7c0.2,0.2,0.6,0.8-0.5,1.1c0,0.2,0.4,0.8,1,0.4
			c0.3-0.3,1.1-1.1,1.5,0.1c0.1,0.3,0.4,1-0.9,1.4c-0.2,0-1.5,0.5-2.8-0.8c-0.4,0.4-1,1-1.6,0.1c0-0.2-0.2-0.9,0.9-0.8
			c0.1,0,0.4-0.1,0.1-0.5C260.2,327.2,257.4,323.3,252.6,322.8"/>
		<path class="st1" d="M258.6,387.3c0,0,2.5,1,2.9,3.3v3.9H256l0-3.9C256,390.6,256.1,388.3,258.6,387.3 M251.1,382.6h14.7
			c0,0,1.1-0.1,1.1,1.4v13.9c0,0,0.1,1.5-1,1.5h-24.3c0,0-1.2,0.2-1.2-1.5c0-1.7,0-37.3,0-37.3h5.1v33.9h4.4v-10.8
			C250,383.7,250,382.7,251.1,382.6"/>
		<path class="st1" d="M275.5,395.7h-2v1.4h-1v0.7h3v-0.7h-1.1v-0.8h1.1V395.7z M279.2,382.4h3.2c0,0,0.8,0.2,0.8,1.4v14
			c0,0,0.3,1.6-1,1.6c-1.3,0-12.4,0-12.4,0s-1,0-1-1.4c0-1.4,0-2.7,0-2.7s-0.3-1,1.2-0.8h1.5v-34.1h5.1v34.1h1.7v-11
			C278.3,383.5,278.2,382.5,279.2,382.4"/>
		<path class="st2" d="M285.9,402.8L285.9,402.8c-0.1-0.1-0.1-0.4-0.1-0.7c0-1.7,0-18.4,0-18.4c0,0,0-0.2,0-0.3c0,0,0-0.1,0-0.1
			l3.4,0c0,0,0,0,0,0.1c0,0.1,0.1,0.2,0.1,0.4c0,1.1,0,18.9,0,18.9s0,0,0,0.1c0,0,0,0.1,0,0.1c0,0,0,0-0.1,0.1c0,0-0.1,0.1-0.3,0.1
			H285.9z"/>
		<rect x="272.2" y="358.6" class="st2" width="3.4" height="0.3"/>
		<polygon class="st2" points="272.6,356.3 273.8,352.1 275.1,356.3 		"/>
		<rect x="240.5" y="357.9" class="st1" width="4.8" height="1.8"/>
		<polygon class="st1" points="242.8,349.7 245.2,357.1 240.7,357.1 		"/>
		<rect x="241.2" y="358.6" class="st2" width="3.4" height="0.3"/>
		<polygon class="st2" points="241.6,356.3 242.8,352.1 244.2,356.3 		"/>
		<path class="st2" d="M258.6,373.8c1,0.3,5.7,2.2,6.9,7.4h-14.3l0.1-0.2c0.2-0.7,0.5-1.6,1.1-2.5
			C253.4,376.6,255.3,374.6,258.6,373.8"/>
		<path class="st2" d="M237.8,383.6c0.1,0,0.2,0.1,0.2,0.4v14.2c0,0,0,0.1,0,0.1c0,0.1,0,0.1,0,0.1c0,0,0,0-0.1,0.1
			c0,0-0.2,0.1-0.4,0.1h-3.9v-3.3l0.9,0V387h-3.2v16.1c0,0,0,0.1,0,0.1c0,0-0.1,0-0.2,0c-1,0-3.1,0-3.1,0c0,0-0.1,0-0.1,0
			c0,0-0.1,0-0.1,0c-0.1-0.1-0.1-0.2-0.1-0.5c0-1.4,0-18.9,0-18.9s0,0,0-0.1c0,0,0-0.1,0-0.1c0,0,0,0,0.1-0.1c0.1,0,0.2-0.1,0.4-0.1
			c1.4,0,9.3,0,9.3,0C237.7,383.6,237.7,383.6,237.8,383.6"/>
		<path class="st3" d="M260.4,387.5c-0.7-0.6-1.4-0.9-1.5-0.9l-0.3-0.1l-0.3,0.1c-2.9,1.2-3.1,3.9-3.1,3.9l0,4.7h7v-4.7
			C262,389.1,261.1,388.1,260.4,387.5 M266.3,397.9c0,0,0,0.3,0,0.5c-0.1,0.2-0.1,0.2-0.2,0.2h-24.4l-0.1,0c0,0-0.1,0-0.1,0
			c-0.1,0-0.1-0.1-0.1-0.1c0-0.1-0.1-0.3-0.1-0.6c0-1.6,0-31.5,0-36.6h3.7v33.9h5.8v-11.5c0-0.1,0-0.1,0-0.2c0,0,0-0.1,0.1-0.1
			s0.1-0.1,0.3-0.1h14.7c0,0,0,0,0.1,0c0,0,0.1,0,0.1,0c0.1,0.1,0.1,0.1,0.1,0.1c0,0.1,0.1,0.2,0.1,0.5L266.3,397.9z"/>
		<path class="st2" d="M269.9,395.2l2.3,0v-34.1h3.6V395h-3v1.4h-1v2.1h4.4v-1.9v-0.1v-1.3h2.8l0-11.7c0,0,0,0,0-0.1
			c0,0,0-0.1,0-0.1c0-0.1,0.1-0.1,0.2-0.1h3c0.1,0.1,0.2,0.3,0.2,0.7v14.1c0,0.1,0,0.3,0,0.6c0,0.2-0.1,0.2-0.3,0.2
			c-1.3,0-12,0-12.4,0c-0.1,0-0.1,0-0.1,0c0,0-0.1-0.1-0.1-0.1c0-0.1-0.1-0.2-0.1-0.5c0-1.5,0-2.8,0-2.8
			C269.5,395.2,269.7,395.2,269.9,395.2"/>
		<path class="st3" d="M259,333.4c0,0,1.4-2.5,5.7-1.2c0,0,3.2,0.8,4.7,0.9c1.1,0.9,8.7,8.7,8.7,8.7l-11.9-3c0,0-3.7-1.4-7.1,2.6
			V333.4z"/>
		<path class="st3" d="M258.3,333.7c0,0-1.1-2.7-5.2-1.4c0,0-2.6,0.6-5.2,0.8c-0.7,0.7-8.8,9.2-8.8,9.2l13-3.6c0,0,3.4-0.7,6.2,2.8
			V333.7z"/>
		<path class="st1" d="M290.1,406.6l-3.7,1.8c0,0,0.5-2.2-0.7-3.1c0,0-0.6,0.4,0.1,1c0.2,0.3,0.8,1.1-0.3,3.1c0.4-0.2,3.8-1.8,4.3-2
			C290,407.1,290.2,407,290.1,406.6"/>
		<path class="st1" d="M289,405.7c0,0,0.7-0.2,0.2-0.7c-0.2-0.1-0.4,0.2-0.6,1.1c-0.3-0.4-0.7-1-1-0.1c0.1,0.1,0.1,0.2,0.4,0.1
			c0.2,0.2,0.6,0.6,0.6,0.9C288.7,406.6,288.8,405.8,289,405.7"/>
		<path class="st1" d="M288.9,408.2c0,0-0.8,1.2-0.2,1.8c0.2,0.1,0.5,0.1,0.6-0.2c0.1-0.2-0.1-0.5-0.4-0.3
			C288.9,409.5,288.8,409.2,288.9,408.2"/>
		<polygon class="st1" points="288.3,414.3 288.7,413.4 289.6,413.8 289.2,414.6 		"/>
		<path class="st1" d="M282.4,408.2c0,0,0.3-1,0.7-0.9c0.2,0.1,0.4,0.5-0.1,0.7c-0.2,0-0.4,0.3-0.5,1.2c-0.1-0.3-0.3-0.8-0.6-0.8
			c-0.2,0-0.5-0.3-0.1-0.7C282,407.7,282.2,407.8,282.4,408.2"/>
		<path class="st1" d="M280.1,408.9c0,0-0.7,0.3-0.5-0.3c0.2-0.4,0.3-0.8,0.3-0.8s-0.8,0.5-0.5,1.7
			C279.6,409.7,280.2,409.7,280.1,408.9"/>
		<path class="st1" d="M282.7,405.4l-4.7,1.9c0,0-0.8,0.8-0.2,1.3c0.2,0,0.5,0,0.8-0.4c-0.2,0-0.7-0.3-0.2-0.5c0.5-0.3,4-1.7,4-1.7
			S282.8,405.8,282.7,405.4"/>
		<path class="st1" d="M279.5,405.7c0,0,0.4-0.9,0.8-0.6c0.1,0.1,0.1,0.6-0.4,0.5c-0.1,0.1-0.4,0.4-0.5,0.9
			c-0.2-0.2-0.3-0.6-0.5-0.7c-0.2,0-0.3,0-0.4,0.1c-0.1-0.1-0.3-0.5,0.2-0.8C279.1,405.2,279.3,405.3,279.5,405.7"/>
		<path class="st1" d="M276.3,406.1c0,0,0.4-0.2,0.5-0.2c-0.1,0.1-0.2,0.4-0.4,0.5c0.3,0,0.7,0.1,1-0.7c0-0.2,0.1-0.6-0.6-0.5
			C276.6,405.3,276.1,405.6,276.3,406.1"/>
		<polygon class="st1" points="275.7,408.7 276.1,407.9 276.7,408.4 276.4,409 276.9,409.5 276.5,410.4 275.9,409.9 276.1,409.2 		
			"/>
		<path class="st1" d="M275.2,406.7c0,0-0.5-1.2-0.5-1.8c-0.2,0.5-0.5,0.9-0.7,1.2c0,0.3,0.4,4,0.6,4.9c0.1,0.4,0.2,1.7,0.1,2
			c0.2-0.3,0.6-0.5,0.4-2.5c-0.1-1.2-0.3-3.5-0.3-3.8C275,406.7,275.1,406.7,275.2,406.7"/>
		<path class="st1" d="M273.1,406.4c0,0-0.5-0.6-0.7-1.6c-0.2,0.6-0.4,1-0.5,1.2c0.1,0.4,0.7,3.8,0.8,4.5c0,0.4,0.3,0.8-0.3,1.6
			c-0.1-0.3-0.3-1.5-0.7-1.9c-0.4-0.5-1.1-1.5-3.4-3.5c0.4-0.1,0.5-0.2,0.5-0.2s-0.7-0.5-1.4-1.1c-0.1,0.2-0.6,1,0.8,2.3
			c0.3,0.4,1.3,1.2,2.5,2.4c0.2,0.3,1.3,1.6,1.3,2.2c-0.1,0.2,0.1,0.4-3,2.2c0.5-0.1,2.9-0.3,3.7-2.4c0.2-0.3,0.5-0.9,0.4-2.4
			c-0.1-0.7-0.5-3.3-0.5-3.3S273,406.4,273.1,406.4"/>
		<path class="st1" d="M271.3,407.6c0,0-0.5,0.6-0.2,1.2c0.1,0.1,0.3,0.1,0.5-0.4C271.4,408.5,271.3,408.4,271.3,407.6"/>
		<path class="st1" d="M270.4,406.7c0,0,0-0.5,0.2-1.1c-0.3,0.2-0.7,0.5-0.4,1.7c0,0.1,0.4,0.3,0.7-0.2c0.1-0.2,0.1-0.3-0.1-0.5
			C270.7,406.7,270.5,406.7,270.4,406.7"/>
		<path class="st1" d="M272.6,413.6c0,0,0.3-0.2,0.1-0.4c-0.1,0-0.3-0.1-0.5,0.3c0,0.2-0.1,0.4,0.2,0.5c-0.1,0.2-0.2,0.5,0.1,0.3
			c0.2-0.2,0.5-0.6,0.7-0.7c0-0.1-0.2-0.2-0.4,0C272.8,413.7,272.6,414,272.6,413.6"/>
		<path class="st1" d="M267.6,408.1c0,0,0.2,0.7-0.4,0.6c-0.1-0.1-0.6-0.7,0.2-1.8C267.4,407.3,267,408.6,267.6,408.1"/>
		<path class="st1" d="M265.7,413.3c0,0-0.5,0.4-0.4,1.4c0,0.2,0.5,0.4,0.6-0.2c0-0.3,0-0.3-0.2-0.3
			C265.7,414.1,265.6,413.6,265.7,413.3"/>
		<path class="st1" d="M264.4,405.7c0,0,0.7-0.3,0.1-0.6c-0.2,0-0.4,0.2-0.6,0.7c-0.3-0.2-0.9-0.7-0.9,0.3c0.2-0.1,0.5-0.3,0.6,0.1
			c0.2,0.3,0.3,0.7,0.3,0.7C264,406.5,264.1,405.8,264.4,405.7"/>
		<path class="st1" d="M262.8,404.9c0,0-2.3,0.9-3,1.3c-0.3,0.2-0.9,0.5-0.7,1.3c0.2,0.1,0.6,0.2,0.5-0.5c0.2-0.2,0.2-0.4,3-1.4
			C262.8,405.2,262.8,404.9,262.8,404.9"/>
		<path class="st1" d="M261.3,407c0,0,0.2-0.5,0.2-0.2c0.1,0.3,0.3,1.7-0.4,1.4c-0.2,0.1-0.7,0.3-0.8-0.4c0,0-0.2-0.7,0.1-0.8
			c0,0.2,0.2,0.8,0.4,0.5c0.1-0.1,0.1-0.5,0.1-0.7c0,0,0.1,0,0.1,0.3c0,0.3,0.1,0.4,0.2,0.2C261.4,407.2,261.3,407,261.3,407"/>
		<path class="st1" d="M258,408.8c0,0-1.1,1.8-2.2-0.1c-0.2,0.4-0.4,0.7-0.2,1.3c0.2,0.6,0.6,0.9,0.3,1.2s-2.1,2.4-4.5,2.2
			c0,0-1.8,0.1-1.3-2.2c0.2-0.4,0.2-0.5,0.2-0.5s-0.8,0.4-0.9,1.9c0,0.3,0.3,1.9,2.4,1.7c0.2,0,3.2-0.5,4.5-2.9c0-0.1,0.2-0.6,0.2-1
			C256.8,410.5,258,410.5,258,408.8"/>
		<polygon class="st1" points="257.1,411 257.8,411.2 257.6,412.2 256.9,411.9 		"/>
		<path class="st1" d="M258.9,413.7c0,0,0.4,0,0.3,0.3c-0.1,0.2-0.2,0.5-0.5,0.1c0-0.2,0-0.7,0.4-1.1
			C259,413.2,258.8,413.7,258.9,413.7"/>
		<path class="st1" d="M256.7,407.2c0,0,0.2-0.8,0.4-0.8c0.2,0,0.3,0.1,0.2,0.4c-0.1,0.2-0.2,0.2-0.3,0.1c-0.1,0.2-0.3,0.6-0.4,1.1
			c-0.1-0.3-0.1-0.4-0.4-0.6c-0.2,0-0.4-0.1-0.2-0.5c0.1-0.2,0.3-0.2,0.4,0C256.4,407,256.5,407.1,256.7,407.2"/>
		<path class="st1" d="M255.2,406.3c0,0,0.3-0.4,0.6-0.3c0,0.1-0.1,0.4-0.4,0.6c0.3-0.1,0.8,0.1,1-1.3c-0.3-0.1-0.5-0.3-1.3,0.3
			C255.1,405.9,255.1,406.1,255.2,406.3"/>
		<path class="st1" d="M253.5,406.7c0,0-0.6-0.6,0.2-1.1c0.2,0,0.7,0,0.4,0.8c-0.2,0.3-1,1.7-2.9,2
			C251.6,408.1,253.5,407,253.5,406.7"/>
		<path class="st1" d="M251.3,406c0,0-0.4,0.3-0.5,1.6c-0.1-0.4-0.5-1.2-0.8-1.3c-0.1,0.1-0.6,0.1-0.2-0.5c0.2-0.2,0.4-0.1,0.6,0.2
			c0.2,0.3,0.3,0.4,0.3,0.4c0.1-0.2,0.2-1,0.6-1.1c0.2,0.1,0.5,0.3,0.4,0.6C251.6,406,251.7,406.2,251.3,406"/>
		<path class="st1" d="M248,406.5c0,0-0.5-0.4,0.2-1.1c0.3-0.2,0.6-0.2,0.6,0.4c-0.1,0.2-0.1,0.3-0.2,0.4c0.1,0.1,0.2,0.3-0.1,0.4
			c-0.1,0-0.2,0.1-0.3,0.2c-0.1,0.1-1.2,1.1-2.2,1.3C246.2,407.9,248,406.7,248,406.5"/>
		<polygon class="st1" points="252.4,411.1 253.1,411.6 252.7,412.5 252,412.1 		"/>
		<path class="st1" d="M251.1,411.9c0,0,0.4,0,0.2,0.4c-0.1,0.2-0.4,0.4-0.5-0.1c0,0-0.1-0.9,0.3-1.2
			C251.1,411.2,251,412,251.1,411.9"/>
		<path class="st1" d="M248.3,412.7c0,0,0.1-0.5,0-0.5c-0.1,0-0.1-0.1-0.4,0.6c-0.1,0.3-0.1,0.4,0.1,0.5c-0.2,0.3-0.4,0.9,0,1.1
			c0.2,0,0.8-0.1,1.1-0.8c0,0-0.7,0.4-0.8,0.2c-0.1-0.1-0.1-0.4,0.2-0.6c0.2-0.1,0.4-0.4,0.2-0.5
			C248.6,412.7,248.3,412.9,248.3,412.7"/>
		<path class="st1" d="M243.2,408.4l0.2-0.4c0,0-0.8-0.2-1.4-0.5c-0.1,0.3-0.4,0.9,0.2,1.3c0.6,0.4,1.8,1.2,2.2,1.4
			c-0.2,0.3-0.9,1-3.3,2.2c-0.2,0.1-1,0.1-0.3-1.5c-0.3,0.2-0.9,1.2-0.3,2.3c0.2,0.2,0.6,0.5,2.8-1.1c0.5-0.3,1.5-0.9,1.6-1.8
			c0.1-0.2,0.1-0.9-0.4-1.2C244.1,408.9,243.5,408.6,243.2,408.4"/>
		<path class="st1" d="M244.8,412.4c0,0,0.3,0.2,0.1,0.4c-0.1,0.1-0.3,0.2-0.5-0.3c0-0.2,0.1-0.6,0.4-0.9
			C244.8,411.9,244.7,412.4,244.8,412.4"/>
		<path class="st1" d="M242.9,410.3c0,0,0.4,0.2,0.1,0.5c-0.2,0.1-0.5,0.1-0.5-0.3c0-0.3,0.2-0.7,0.5-1
			C242.9,409.9,242.8,410.4,242.9,410.3"/>
		<path class="st1" d="M244.5,408c0,0,0.4-0.1,0.2,0.4c-0.1,0.2-0.3,0.3-0.5-0.1c0-0.3,0-0.8,0.3-1.4
			C244.5,407.2,244.4,408,244.5,408"/>
		<path class="st1" d="M246.6,406.3c0,0,0.4,0,0.2,0.4c-0.1,0.2-0.5,0.4-0.6-0.3c0.1-0.3,0.2-0.9,0.4-1.1
			C246.6,405.6,246.5,406.4,246.6,406.3"/>
		<path class="st1" d="M242.8,406c0,0,0.4-0.3,0.6-0.2c-0.1,0.2-0.3,0.5-0.6,0.6c0.2,0.1,0.7,0.1,1.2-0.4c0.2-0.3,0.2-0.7,0.2-0.7
			s-0.5-0.3-1.3,0.1C242.7,405.5,242.8,405.9,242.8,406"/>
		<path class="st1" d="M241.4,406.8l0.5,0.3c0,0-0.6-1.3-0.8-2.1c-0.2,0.3-0.5,0.6-0.4,1.6c0.1,1,0.7,4.8,0.7,4.8s0.3,1.9,0.2,2.6
			c0.2-0.3,0.6-0.8,0.3-3C241.6,408.9,241.3,407,241.4,406.8"/>
		<path class="st1" d="M239.7,406.8l0.4,0.2c0,0-0.6-1.3-0.9-2.2c-0.2,0.4-0.4,0.6-0.3,1.4c0.1,0.8,0.6,4.9,0.6,5.3
			c-0.1,0.4-0.3,1.1-2.7,2.7c0.4,0,2.4,0.1,3.2-2.7c0,0,0.2-0.5,0-2.1C239.8,407.9,239.7,406.9,239.7,406.8"/>
		<path class="st1" d="M238,407c0,0-0.6,0.4-0.5-0.1c0.1-0.5,0.3-1.2,0.5-1.6c-0.4,0.4-1.1,1.5-0.8,2.2c0.1,0.2,0.3,0.5,0.7,0
			C238.1,407.4,238.2,407.1,238,407"/>
		<path class="st1" d="M235.3,406.2l0.6-0.1c0,0-1.4-0.7-1.6-1c-0.2,0.2-0.5,0.7,0.2,1.5c0.7,0.8,3.3,3.2,3.8,3.7
			c0.3,0.4,0.9,1.2,0.9,2.2c0-0.6,0.2-1.6-0.6-2.8C238,408.9,235.8,406.7,235.3,406.2"/>
		<path class="st1" d="M237.8,411.6c0,0-0.4,0.3-0.4,0.6c0,0.3,0,0.5-0.2,0.5c-0.1-0.1-0.3-0.4-0.3-0.8c-0.2,0.4-0.5,1.2-1,1.1
			c-0.2,0-0.7,0.1-0.7-0.9c-0.3,0.3-0.9,1.1-1.4,1c-0.2,0-0.7,0.2-0.9-1.5c0,0,0.2-4.1-0.7-6.3c0,0-0.4,0.5-0.4,1
			c0.1,0.4,0.6,3,0.6,4.2c-0.1,0.5-0.1,2.3-3.3,3.9c0,0,2.3,0.1,3.3-2.1c0,0,0.1,0.2,0.1,0.5c0,0.4,0.3,1.6,1.3,1.2
			c0.2,0,0.7-0.4,1-0.8c0.2,0.4,0.7,1.5,1.8,0.1c0.2,0.2,0.9,0.6,1.3-0.3C238,412.7,238.1,411.9,237.8,411.6"/>
		<path class="st1" d="M239.7,413.4c0,0,0.3-0.2,0.1-0.4c-0.2-0.1-0.3,0-0.5,0.5c-0.1,0.2,0.1,0.4,0.2,0.5c-0.1,0.2-0.1,0.5,0.2,0.2
			c0.2-0.2,0.5-0.6,0.6-0.7c0-0.1,0-0.3-0.3,0C239.9,413.7,239.6,413.9,239.7,413.4"/>
		<path class="st1" d="M234.1,407.5c0,0,0.4,0.1,0.4-0.4c0-0.2-0.4-0.4-0.7,0.4c-0.1-0.1-0.3-0.6-0.7-0.3c-0.1,0.1-0.2,0.5,0.2,0.5
			c0.2,0.1,0.4,0.4,0.4,0.8C233.8,408.3,234,407.6,234.1,407.5"/>
		<polygon class="st1" points="226.9,409 227.3,408.4 226.6,407.8 226.9,406.9 227.6,407.4 227.4,408.1 228,408.7 227.6,409.6 		"/>
		<path class="st1" d="M227.4,410.4c0,0,0.5,0,0.3,0.5c-0.2,0.2-0.5,0.3-0.6-0.2c0-0.3,0-0.7,0.3-1
			C227.3,410,227.3,410.5,227.4,410.4"/>
		<polygon class="st1" points="229.4,412.9 228.8,412.5 228.3,413.4 229.1,413.9 229.5,413.2 230.3,413.5 230.6,412.7 229.8,412.3 
					"/>
		<path class="st1" d="M237.1,410.6c0,0,0.3-0.2,0.3,0.1c0,0.2-0.1,0.5-0.4,0.4c-0.2-0.1-0.6-0.3,0.1-1.5
			C237,409.9,237,410.7,237.1,410.6"/>
		<path class="st1" d="M229.6,405.6c0,0-0.1-0.5,0-0.6c0.1,0.1,0.8,0.4,1.1,1.7c0,0.3,0,0.7-0.2,1c0-0.3,0-1-0.3-1.4
			C229.8,406,229.6,405.6,229.6,405.6"/>
		<path class="st1" d="M228.6,406.6l0.2-0.3l-1.3-1.1c0,0-0.6,0.9,0.3,1.8c0.6,0.4,3.9,3,4.2,4.2c0.2-0.4,0.6-0.5-0.3-1.6
			C231,408.8,229.5,407.2,228.6,406.6"/>
		<path class="st1" d="M279.4,411.4c0,0,0.2-0.2,0.7-0.1c-0.1,0.2-0.2,0.3-0.3,0.5C279.7,411.8,279.5,411.6,279.4,411.4
			 M282.1,412.3c0,0,0.1-1.1,0.5-1.1c0.2,0.1,0.1,0.4,0.1,0.7C282.6,412,282.6,412.2,282.1,412.3 M281.8,412.4c0,0,0.3-1.7,0.8-2.1
			c0.2-0.1,0.5,0.1,0.6,0.7c0,0.3,0.1,1-0.4,1.6c-0.2,0.3-0.6,0.6-1,0.7c-0.1,0.3-0.2,0.8-0.2,0.8l-0.1-0.8c0,0-1,0.3-1.8-0.7
			c0,0-1,0.9-1.7,1c-0.2,0-0.7,0-1.2-1.1c-0.2-0.1-0.9-0.1-1.2,0.8c-0.2,0.5-0.5,1.2-0.9,1.3c-0.2,0-0.6,0.1-0.9-0.8
			c-0.1-0.3-0.1-1.1,0.1-1.8c0,0.4,0.2,1.6,0.7,1.5c0.1,0,0.5,0,0.8-0.7c0.2-0.4,1.1-2.1,1.8-1c0.2,0.3,0.9,1.3,1.8,0.2
			c-0.1-0.2-0.4-0.6-1.1-0.2c0-0.3-0.3-1,1.4-1.5c0.3,0,1.3-0.2,2.1,0.1c0,0.3-0.1,0.7-0.1,0.7s-0.6,0.4-0.9,0.9
			C280.6,412.4,281,412.7,281.8,412.4"/>
		<path class="st1" d="M285.7,412.5c0,0-0.4-1.3,0.3-1.3c0.4,0,1.3,0.1,2.5,0.7C288.1,412.1,286.7,413,285.7,412.5 M285,412.4
			c0,0,0-1.7,0.6-2c0.2-0.1,0.7-0.5,2.2,0.3c0.5,0.1,1.9,0.6,2.7,0.5c-0.1,0.5-0.2,0.9-0.2,0.9s-0.6-0.1-1.5,0.5
			c-0.4,0.2-1,0.7-2.6,1.1c-0.1,0.5-0.2,0.8-0.4,0.6c0-0.1,0-0.3,0-0.5c-0.3,0-1.1,0.1-1.5-1.8c0,0-0.4-2.3-0.4-4.4
			c-0.1-0.4-0.4-1.2-0.2-1.7c0.2-0.5,0.4-0.8,0.5-0.9c0.1,0.6,0.3,1.5,0.3,2.9C284.4,408.7,284.7,412.4,285,412.4"/>
		<path class="st1" d="M269.6,412.7c0,0,0.1-0.6,0.3-0.3c0.1,0.2,0.4,0.4,0.1,0.5C269.8,412.9,269.5,413.1,269.6,412.7 M268.7,412.8
			c0,0,0.5-0.6,0.6-1c0.2-0.3,0.6-0.7,1-0.1c0.3,0.6,0.5,0.9,0.3,1.3c-0.2,0.3-0.4,0.8-1.6,0.5c-0.3,0.1-0.4,0.1-1.2,0.6
			c-0.3,0.1-1.5,0.5-2-1.3c-0.1-0.6-0.2-1.5-0.5-6.1c0,0-0.2-0.1-0.4,0.2c0.1-0.4,0.1-0.8,0.8-1.3c0.1,0.6,0.2,1.7,0.3,4.1
			c0,0.6-0.1,2.6,0.6,3.2C266.8,413.1,267.6,413.8,268.7,412.8"/>
		<path class="st1" d="M268.3,410.5c0,0,0-0.6,0.3-0.5c0.2,0.1,0.3,0.2,0.2,0.4C268.6,410.5,268.4,410.5,268.3,410.5 M267.7,410.7
			c0,0-0.2-1.6,0.5-1.6c0.3,0.1,1.1,0.3,1.5,0.8c-0.1,0.5-0.1,1-0.1,1s-1.3,0.3-2.7,1c-0.3,0.2-1.5,1-2.3,2.1
			c-0.2,0.3-0.7,0.7-1.3,0.3c-0.2-0.2-1-0.8,0.4-2.9c-0.2,0.4-0.8,1.7,0,2.1c0.2,0.1,0.6,0.1,1.1-0.5
			C265.1,412.6,265.6,411.7,267.7,410.7"/>
		<path class="st1" d="M263.1,408.7c0,0-0.3-0.7,0.2-0.6c0.3,0.1,0.5,0.2,0.3,0.4C263.4,408.7,263.4,408.7,263.1,408.7 M262.4,409
			c0,0-0.5-1.5,0.6-1.9c0.3,0,1.3,0.4,1.5,1c0,0.3,0,1-0.7,1.2c-0.4,0.1-1.7,0.5-1.9,1.1c0.6,0,3.5-0.3,3.5-0.3s0,0.5-0.5,0.9
			c-0.4,0.1-2.9,0.8-3.7,1.3c-0.1,0.2-0.3,0.6,1.1,1.1c-0.3,1-0.2,1.1-0.2,1.1l-1-0.4c0,0-1-0.2-1.7-2.3c0,0-0.1,1.2-2.4,2.3
			c-0.3,0.1-1.9,1-2.3-0.9c0,0-0.1-0.9,0.7-1.8c-0.1,0.5-0.6,2,0.4,2.1c0,0,0.8,0.1,2-0.7c0.3-0.2,1.5-0.8,1.6-1.5
			c-0.1-0.4-0.9-2.5-1.1-3.3c0.3-0.8,0.4-0.8,0.4-0.8s0.4,0.5,1.4,3.8c0.1,0.4,0.3,1.4,0.8,1.8c0.2-0.3,0.3-0.9,1-1.3
			c-0.4,0-1,0-1.5,0c0,0,0.1-0.9,0.4-1.3C260.7,410,262,409.2,262.4,409"/>
		<path class="st1" d="M246,410.9c0,0,0.1-0.6,0.3-0.5c0.1,0.1,0.4,0.2,0.3,0.4C246.4,410.9,246.2,411,246,410.9 M248.4,409.3
			c0,0,0.6-0.4,1.1,0c-0.2,0.2-0.4,0.2-0.5,0.3C248.9,409.6,248.7,409.4,248.4,409.3 M254.9,408.7c0,0-0.3,0-0.4,0.6
			c0,0.3,0,0.6-0.2,0.6c-0.2,0-0.7-0.1-0.3-0.8c-0.2,0.1-0.5,0.5-0.7,0.8c-0.1,0.1-0.7,0.5-1.1,0.1c-0.1-0.1-0.3-0.5-0.2-0.7
			c-0.3,0.3-1.1,1.1-1.6,1.2c-0.2,0-0.7,0-0.5-0.4c0.3-0.2,0.7-0.4,0.8-0.4c0.1-0.3,0-0.7,0-0.7s-1.3-0.7-3.5-0.1
			c-0.2,0.2-0.4,1-0.4,1s1.1-0.1,1.2,0.3c-0.1,0.2-0.5,0.6-0.9,0.4c-0.1-0.2-0.5-1-1.1-0.9c-0.3,0.1-0.8,0.8-0.7,2
			c0.1,0.1,0.7,0.3,1.3-0.2c0.2,0.1,0.3,0.4,0.2,0.6c-0.2,0.2-1.4,1.5-3.2,1.9c-0.2,0-1.3-0.1-0.6-2c-0.4,0.5-1,1.4-0.4,2.6
			c0.1,0.2,0.7,0.7,1.8,0.1c1.1-0.6,2.4-1.4,2.7-2.2c0.1-0.2,0.2-0.8,0.1-1.1c0.2-0.1,1.3-0.4,1.5-0.6c0.3,0.3,1.2,1.1,2.8-0.5
			c0.2,0.4,0.7,1.4,1.9,0.1c0.2,0.3,1,0.8,1.5-0.6C255.1,409.4,255.2,409.2,254.9,408.7"/>
		<path class="st1" d="M235.2,410.8c0,0,0-0.5,0.3-0.5c0.1,0.2,0.3,0.3,0.2,0.6C235.5,410.9,235.3,410.9,235.2,410.8 M234.5,410.9
			c0,0-0.1-0.7,0.8-1.5c0.3,0,0.4,0,0.7,0.6c0.2,0.5,0.5,1.1,0,1.6c-0.2,0-0.4,0.2-1.2-0.2c-0.3,0.3-0.5,0.4-0.6,0.6
			c-0.1,0.1-0.8,0.4-1-1c-0.3,0.3-2.9,2.4-4.2,0c0,0-0.2-0.3-0.7,0.5c0,0-0.4,0.9-0.6,1.5c-0.2,0.3-0.5,0.7-1.1-0.2
			c-0.2-0.5-0.5-1.5,0.1-2.3c0,0.4-0.1,1.6,0.3,1.8c0.2,0.1,0.6,0.2,0.8-0.4c0.2-0.4,0.5-1.6,1.1-1.8c0.2,0,0.4,0.2,0.6,0.5
			c0.2,0.3,1,1.9,4-0.6c0,0.2,0,0.4-0.1,0.7C233.6,410.7,233.8,411.6,234.5,410.9"/>
		<path class="st1" d="M264.9,322.8c0,0-3.7-2.2-8.9,4.4c-0.1-0.2-0.5-1.3-1.3-0.7c-0.2,0.2-0.6,0.8,0.5,1.1c0,0.2-0.4,0.8-1,0.4
			c-0.3-0.3-1.1-1.1-1.5,0.1c0,0.3-0.4,1,0.9,1.4c0.2,0,1.5,0.5,2.8-0.8c0.4,0.4,1,1,1.6,0.1c0-0.2,0.2-0.9-0.9-0.8
			c-0.1,0-0.4-0.1,0-0.5C257.3,327.2,260.1,323.3,264.9,322.8"/>
		<path class="st4" d="M257.9,321.9c0-0.1,0.1-0.2,0.2-0.3l0.1-0.1l0-0.1c0.1-0.6,0.1-4.5,0-4.9l0-0.1c-0.1-0.2-0.8-0.9-1.7-0.5
			c0-0.3,0.1-0.4,0.2-0.5l1-0.8l-1.3,0.2c-0.2,0-0.4,0.1-0.6,0.2c0-0.2,0.1-0.5,0.5-0.6l0.8-0.5l-1-0.2c-0.1,0-0.3,0-0.3-0.1
			c0.1-0.1,0.2-0.4,0.8-0.6l0.5-0.2l-0.3-0.4c-0.1-0.1-0.2-0.2-0.2-0.3c0.2-0.2,0.7-0.4,1.8-0.7c0,0,0.1,0,0.1,0
			c0.1,0,0.2,0,0.4,0.1c0.3,0.1,0.7,0.3,1.2,0.8c0,0-0.1,0.1-0.1,0.1c-0.1,0.1-0.1,0.1-0.1,0.1l-0.1,0.1l-0.1,0.2l-0.1,0.3
			c0,0,0.6,0,0.6,0c0,0,0.1,0,0.2,0c0.1,0,0.1,0.1,0.2,0.1c-0.2,0.1-0.8,0.2-0.8,0.2l0.6,0.4c0,0,0.5,0.3,0.5,0.8
			c-0.2-0.1-0.3-0.1-0.4-0.2c-0.1,0-0.2,0-0.3,0c-0.1,0-0.2,0-0.3,0.1c-0.1,0-0.4,0.1-0.4,0.1l0.4,0.4c0.1,0.1,0.3,0.4,0.4,0.6
			c-0.1,0-0.3-0.1-0.4-0.1c-0.4,0-0.8,0.1-1,0.7l0,0.1c0,0.7-0.1,4.4,0,4.9l0,0.1l0.1,0.1c0.1,0.1,0.2,0.2,0.2,0.3
			c0,0.1,0,0.1,0,0.1c-0.1,0-0.4,0.1-0.6,0.1C258.3,322,258,322,257.9,321.9L257.9,321.9z"/>
		<path class="st4" d="M254.5,322.8c0.2,0,0.3,0,0.5,0.1c1.5,0.3,3.6,1.3,6.2,4.5l0.3,0.4l0.3-0.4c0-0.1,0.1-0.2,0.2-0.3
			c0.1-0.1,0.1-0.2,0.2-0.3c0.1-0.1,0.2-0.2,0.4,0c0,0,0.1,0.1,0.1,0.1c0,0,0,0.1,0,0.1c0,0-0.1,0.2-0.5,0.3l-0.3,0.1l0,0.3
			c0,0.4,0.6,1.3,1.6,0.6c0.1-0.1,0.2-0.2,0.3-0.3c0.1-0.1,0.2-0.1,0.3-0.2c0.1,0,0.1,0,0.2,0c0.1,0,0.1,0.1,0.2,0.4
			c0,0.1,0,0.1,0,0.2c0,0.1,0,0.2,0,0.2c0,0.1-0.1,0.3-0.7,0.5c-0.1,0-0.2,0-0.3,0.1c-0.1,0-0.3,0-0.6,0c-0.4,0-1-0.2-1.6-0.8
			l-0.3-0.3l-0.2,0.3c-0.2,0.2-0.4,0.4-0.5,0.4c-0.1,0-0.2,0-0.4-0.2l0-0.1c0-0.1,0-0.1,0-0.1c0,0,0,0,0.1-0.1c0.1,0,0.2-0.1,0.4,0
			c0.1,0,0.4-0.1,0.5-0.3c0.2-0.2,0.1-0.5-0.2-0.8c0,0-0.1-0.1-0.2-0.2c-0.1-0.1-0.3-0.3-0.5-0.5c-0.4-0.4-1-1-1.7-1.5
			C257.5,324.1,256.1,323.3,254.5,322.8"/>
		<path class="st4" d="M259,324.9c-0.7,0.6-1.2,1.1-1.7,1.5c-0.2,0.2-0.4,0.4-0.5,0.5c-0.1,0.2-0.2,0.2-0.2,0.2
			c-0.3,0.3-0.4,0.6-0.2,0.8c0.1,0.2,0.4,0.3,0.5,0.3c0.2,0,0.4,0,0.4,0c0.1,0,0.1,0.1,0.1,0.1c0,0,0,0.1,0,0.1l0,0.1
			c-0.2,0.2-0.3,0.2-0.4,0.2c-0.2-0.1-0.3-0.2-0.5-0.4l-0.3-0.3l-0.3,0.3c-0.6,0.6-1.1,0.7-1.6,0.8c-0.2,0-0.4,0-0.6,0
			c-0.2,0-0.3-0.1-0.3-0.1c-0.5-0.2-0.6-0.4-0.6-0.4c0-0.1,0-0.1,0-0.2c0-0.1,0-0.2,0-0.2c0.1-0.2,0.2-0.3,0.2-0.4c0,0,0.1,0,0.2,0
			c0.2,0.1,0.4,0.3,0.5,0.4c1.1,0.7,1.6-0.2,1.7-0.6l0-0.3l-0.3-0.1c-0.5-0.1-0.5-0.3-0.5-0.3c0,0,0,0,0-0.1c0,0,0.1-0.1,0.1-0.1
			c0.2-0.2,0.3-0.1,0.4,0c0.1,0.1,0.1,0.2,0.2,0.3c0.1,0.1,0.1,0.2,0.2,0.3l0.3,0.4l0.3-0.4c2.6-3.2,4.7-4.3,6.2-4.5
			c0.2,0,0.3,0,0.5-0.1C261.4,323.3,260.1,324.1,259,324.9"/>
		<path class="st5" d="M256.9,305.9c0,0,1.7-2,3.7-0.1c2,1.9,34.1,33.8,34.1,33.8s0.8,0.7,0.9,2.4c0,1.7,0,72.5,0,72.5
			s0,2.5-2.5,2.5c-2.5,0-68.8,0-68.8,0s-2.1,0-2.1-2.2v-72.3c0,0-0.3-0.9,1.3-2.5C224.9,338.5,256.9,305.9,256.9,305.9 M254.1,303.9
			c0,0,2.1-2.4,4.9-2.4c0,0,2.4-0.3,4.7,2.1c2.4,2.4,33.8,34.1,33.8,34.1s1.7,1.6,1.8,3.8c0.1,2.2,0,75.5,0,75.5s0,3.6-3.2,3.6
			c-3.2,0-74.1,0-74.1,0s-3.9,0.4-3.9-3.9c0-4.3,0.1-74.1,0.1-74.1s-0.3-1.9,1.9-4.2C222.3,336.1,254.1,303.9,254.1,303.9"/>
		<polygon class="st2" points="275.5,395.7 273.5,395.7 273.5,397.1 272.5,397.1 272.5,397.8 275.5,397.8 275.5,397.1 274.4,397.1 
			274.4,396.3 275.5,396.3 		"/>
	</g>
	<g>
		<path d="M431.3,42.9c0,0-10.4-10.9-30.8-12c-2.2-0.2-22,0.2-35.3,10.7c-2.4,2.4-213,214.1-213,214.1s-10,10.7-9.3,18.9v455.8
			c0,0-2.2,27.3,27.5,30.8h448.5c0,0,31.1-4,30.4-30.2c-0.2-9.8,0-453.1,0-453.1s1.1-14.2-7.5-21.5L431.3,42.9z"/>
	</g>
	<g>
		<path class="st0" d="M388.9,81.9c0,0,8-7.1,16.4,0.7c9,8.3,191.3,190.2,191.3,190.2s6.7,6,7.3,15.3v414.3c0,0,0.2,12.4-11.8,13.1
			H198.3c0,0-8.4,1.3-9.8-11.8l0.7-408.1c0,0-0.4-11.5,7.5-19.5C204.7,268.1,388.9,81.9,388.9,81.9"/>
		<path class="st1" d="M394.7,230.6c0,0,5.1-11.8,19.7-10.7c0,0,13.8,1.6,24.4,5.1c0,0,10.7,3.1,21.3,2.7
			c8.9,8.4,63.9,63.9,63.9,63.9s0.2,3.3-3.1,2.7c-3.3-0.7-76.8-20-76.8-20s-32.4-10-45.1,20.6h-8.4c0,0-9.1-29.5-47.5-19.3
			c-11.1,2.9-73.9,22.4-73.9,22.4s-5.1,0.4-2.4-4.4l64.6-65.9c0,0,21.5-2.9,29.1-4.7C365.8,221.7,384.4,214.4,394.7,230.6"/>
		<path d="M552.4,520.6l22.2-0.2c0,0,4,0.2,4.2,6.9c0.2,6.6,0,110.5,0,110.5s0.4,6-6.4,6h-17.5c0,0-5.3,1.6-5.1-8.7
			c0.2-10.2,0-107.4,0-107.4S548.9,522.2,552.4,520.6"/>
		<rect x="470.1" y="377" class="st1" width="28.2" height="10.4"/>
		<polygon class="st1" points="483.2,329.3 497.4,372.4 471,372.4 		"/>
		<path d="M395.3,465.8c0,0,39.5,11.3,44.8,51.5h-93.7C346.5,517.3,351.8,475.1,395.3,465.8"/>
		<path d="M244.9,592.3l5.1-0.2v-40.6h-10.4v89.6c0,0,0.9,5.3-4.9,5.5c-5.8,0.2-18,0-18,0s-6.4,1.1-6.2-7.1c0.2-8.2,0-110.1,0-110.1
			s-0.9-6.4,7.1-6.2c8,0.2,53.7-0.2,53.7-0.2s7.5-0.7,7.5,7.1v83c0,0,0.9,6.7-6.9,6.7h-27.1V592.3z"/>
		<path d="M405.5,126.3c0.5,0.5,1,1.3,1.5,2.1c0.9,1.6,1.8,3.9,0.2,5.6l-0.6,0.1c-1-0.6-2.6-1.3-4.1-1.4c-1.4-0.1-2.5,0.3-2.9,1.9
			c-0.1,4.4-0.4,24.6,0,28c0.5,0.6,1.3,1.6,1.7,2.8c0.4,1.4,0.2,2.9-1.6,4c-1.9,0.5-7.3,1.6-10.3-0.3c-0.9-0.7-2.8-2.2,0.7-6
			c0.3-3.8,0.3-25.2-0.1-27.7c-0.7-0.9-3.9-4.4-8.6-0.1l-0.7,0.6l-0.2-0.9c-0.2-0.7-0.5-2.3-0.4-4c0.1-1.2,0.3-2.4,1-3.5
			c-1.8,0.6-3.5,1.7-3.6,1.7l-0.6,0.4c0,0-0.4-1-0.5-1.6c-0.1-0.6-0.2-1.5-0.1-2.4c0.2-1.7,0.9-3.7,2.9-5.3
			c-1.9-0.3-2.8-0.6-2.8-0.6c-0.2-0.4-1.7-4.9,5.7-7.7c-1.5-1.8-1.7-2.5-1.7-2.7c-0.1-0.5,0.2-3.4,12.8-6.7c0.1,0,7.1-1.2,14.5,7.5
			l0.4,0.5l-0.6,0.3c-1.1,0.6-1.8,1.1-2.2,1.5c1.3,0.3,3.8,1.2,6.2,4.8l0.5,0.7l-0.9,0.1c-1.3,0.1-2.2,0.2-2.8,0.3
			c0.6,0.5,1.3,1.2,1.9,2.2c1.2,1.9,2.2,4.7,0.9,8l-0.3,0.7l-0.6-0.5c-1.8-1.6-3.3-2.2-4.4-2.5C405.8,126.3,405.6,126.3,405.5,126.3
			"/>
		<path class="st1" d="M359.8,171.8c0,0,21.4-12.7,51.9,25.6c0.7-1.2,3.1-7.8,7.8-4c1.3,1.3,3.7,4.7-3.1,6.7
			c0.2,1.3,2.1,4.6,6.1,2.1c1.5-1.6,6.2-6.7,9,0.6c0.3,1.8,2.1,5.9-5,8c-1.2,0.3-8.7,2.8-16.1-4.4c-2.1,2.4-5.6,5.6-9.2,0.7
			c-0.1-1-0.9-5,5.2-4.7c0.7,0,2.5-0.7,0.3-2.7C404.5,197.7,387.9,174.7,359.8,171.8"/>
		<path class="st1" d="M395.1,548.8c0,0,14.4,5.8,16.9,19.5v22.9h-32.4l0.2-23.1C379.8,568.1,380.5,554.9,395.1,548.8 M351.4,521.7
			h86.1c0,0,6.7-0.7,6.7,8.2v81c0,0,0.9,8.9-5.8,8.9H296.1c0,0-7.1,1.3-6.9-8.9c0.2-10.2,0-217.9,0-217.9h30v198.2H345v-63.2
			C345,527.9,344.7,522.2,351.4,521.7"/>
		<path class="st1" d="M493.7,598.2h-11.4v8.1h-5.9v4h17.3v-4h-6.5v-4.4h6.5V598.2z M515.4,520.6h18.9c0,0,4.4,1.3,4.4,8v82.1
			c0,0,1.6,9.3-6,9.1c-7.5-0.2-72.6,0-72.6,0s-6,0.2-5.8-8.2c0.2-8.4,0-15.5,0-15.5s-1.5-5.8,7.1-4.9h8.9V391.9h29.5v199.3h10.2
			v-64.1C510.1,527.1,509.6,521.3,515.4,520.6"/>
		<path class="st2" d="M554.5,639.6l-0.1-0.2c-0.2-0.6-0.5-1.9-0.5-4.1c0.2-10.2,0-107.8,0-107.8c0-0.3-0.2-1.1,0-2
			c0-0.3,0.1-0.4,0.1-0.6l20-0.2c0.1,0.1,0.2,0.2,0.3,0.4c0.2,0.4,0.4,1.2,0.4,2.4c0.2,6.6,0,110.5,0,110.5s0,0.2,0,0.3
			c0,0.2-0.1,0.5-0.2,0.7c-0.1,0.1-0.1,0.2-0.3,0.4c-0.2,0.1-0.7,0.3-1.7,0.3H554.5z"/>
		<rect x="474.4" y="381.3" class="st2" width="19.7" height="1.9"/>
		<polygon class="st2" points="476.6,368.1 483.5,343.5 491.6,368.1 		"/>
		<rect x="289.2" y="377" class="st1" width="28.2" height="10.4"/>
		<polygon class="st1" points="302.3,329.3 316.5,372.4 290.1,372.4 		"/>
		<rect x="293.5" y="381.3" class="st2" width="19.7" height="1.9"/>
		<polygon class="st2" points="295.7,368.1 302.7,343.5 310.8,368.1 		"/>
		<path class="st2" d="M395.1,470.1c5.8,2,33.5,13,40.1,43h-83.5l0.4-1.4c1.1-3.9,3-9.1,6.2-14.6
			C364.4,486.4,375.5,474.7,395.1,470.1"/>
		<path class="st2" d="M273.4,527.5c0.5,0.2,1.3,0.7,1.3,2.6v83.2c0,0,0,0.3,0,0.5c0,0.3-0.1,0.6-0.2,0.8c-0.1,0.1-0.1,0.3-0.4,0.5
			c-0.3,0.2-0.9,0.4-2.2,0.4h-22.9v-19.3l5.1-0.2v-48.8h-18.8v94.2c0,0.3,0.1,0.6,0,0.8c-0.2,0.2-0.4,0.2-0.9,0.3
			c-5.7,0.2-18.1,0-18.1,0c-0.1,0-0.4,0.1-0.6,0.1c-0.2,0-0.4-0.1-0.6-0.1c-0.4-0.6-0.7-1.3-0.6-2.7c0.2-8.2,0-110.4,0-110.4
			s0-0.3,0-0.5c0-0.2,0.1-0.4,0.1-0.6c0.2-0.2,0.2-0.3,0.3-0.4c0.3-0.2,1-0.4,2.3-0.4c8,0.2,54.5-0.2,54.5-0.2
			C272.5,527.3,273,527.4,273.4,527.5"/>
		<path class="st3" d="M405.2,550.1c-4.4-3.5-8.4-5.2-8.6-5.2l-1.6-0.6l-1.6,0.7c-16.9,7.1-17.9,22.6-17.9,23l-0.3,27.4h40.8V568
			C414.6,559.4,409.6,553.7,405.2,550.1 M440,611.1c0,0.1,0.1,1.8-0.3,3.1c-0.3,1.2-0.7,1.4-1.4,1.4H295.8l-0.5,0.1
			c-0.2,0-0.5-0.1-0.7-0.2c-0.3-0.3-0.5-0.4-0.6-0.7c-0.3-0.6-0.6-1.7-0.6-3.8c0.2-9.3,0-184.4,0-213.8H315v198.2h34.1v-67.5
			c0.1-0.5,0.1-0.7,0.2-1c0.1-0.1,0.2-0.4,0.5-0.6c0.3-0.2,0.8-0.4,1.8-0.5h86c0,0,0.2,0,0.4,0c0.2,0,0.5,0.1,0.7,0.2
			c0.4,0.3,0.5,0.5,0.7,0.7c0.3,0.5,0.6,1.4,0.6,3.1L440,611.1z"/>
		<path class="st2" d="M461,595.3l13.5,0V396.1h21.2V594h-17.5v8.1h-6.1v12.4h25.8v-11v-0.4v-7.8h16.3l0-68.5c0,0,0-0.2,0-0.4
			c0-0.3,0.1-0.6,0.2-0.8c0.1-0.4,0.4-0.7,1.2-0.9h17.6c0.6,0.6,1.3,1.5,1.3,3.8v82.5c0.1,0.5,0.3,2-0.1,3.3c-0.2,1-0.5,1.3-1.6,1.3
			c-7.4-0.2-70,0-72.6,0c-0.4-0.1-0.5-0.1-0.7-0.2c-0.3-0.3-0.4-0.4-0.5-0.7c-0.2-0.5-0.5-1.4-0.4-3c0.2-8.6,0-16.2,0-16.2
			C458.9,595.3,459.7,595.2,461,595.3"/>
		<path class="st3" d="M397.5,234.1c0,0,8.4-14.4,33.1-6.9c0,0,18.4,4.7,27.3,5.1c6.2,5.5,51,50.8,51,50.8l-69.7-17.3
			c0,0-21.7-8-41.7,15.3V234.1z"/>
		<path class="st3" d="M393.1,235.7c0,0-6.2-15.8-30.2-8c0,0-15.3,3.6-30.4,4.7c-4,4.2-51.5,53.9-51.5,53.9l76.1-21.3
			c0,0,20-4,36,16.6V235.7z"/>
		<path class="st1" d="M579.2,661.7l-21.7,10.5c0,0,2.9-13.1-4.3-18.4c0,0-3.3,2.3,0.8,5.8c1.2,1.5,4.8,6.6-1.6,18
			c2.5-1.2,22.3-10.7,25.1-11.9C578.6,664.8,579.5,664.1,579.2,661.7"/>
		<path class="st1" d="M572.6,656.8c0,0,4-1.1,1.1-4.1c-1.2-0.3-2.5,1-3.6,6.2c-1.6-2.2-4.4-6.1-6.1-0.6c0.4,0.3,0.6,1.3,2.4,0.8
			c1.2,1.2,3.2,3.3,3.7,5.1C570.6,662,571.6,656.9,572.6,656.8"/>
		<path class="st1" d="M572.2,671.4c0,0-4.9,7-1.1,10.8c1,0.3,3.1,0.6,3.7-1.4c0.3-1.2-0.4-3-2.1-1.9
			C572,678.5,571.5,676.9,572.2,671.4"/>
		<polygon class="st1" points="568.8,707.1 571.1,701.5 576.2,703.7 574.1,708.9 		"/>
		<path class="st1" d="M533.9,671.2c0,0,1.8-5.7,4-5c0.9,0.4,2.3,3.1-0.8,4.1c-0.9,0.3-2.5,1.7-2.9,7.1c-0.7-1.6-1.7-4.9-3.4-4.8
			c-0.9,0-3.1-1.8-0.6-3.9C531.5,668.6,532.7,668.9,533.9,671.2"/>
		<path class="st1" d="M520.7,675.4c0,0-3.9,2-2.8-1.7c0.9-2.2,1.7-4.9,1.7-4.9s-4.9,3.2-2.7,9.9C517.5,679.7,520.9,680,520.7,675.4
			"/>
		<path class="st1" d="M535.6,654.8L508.3,666c0,0-4.8,4.5-1.4,7.5c1,0.3,3.1,0,4.5-2.2c-1.2-0.2-3.8-1.5-1-3
			c2.8-1.5,23.6-10,23.6-10S536.2,657.4,535.6,654.8"/>
		<path class="st1" d="M517.1,656.8c0,0,2.1-5.3,4.6-3.2c0.6,0.7,0.4,3.6-2.1,3.1c-0.7,0.6-2.2,2.5-2.7,5.3c-0.9-1-1.9-3.7-3.1-4.2
			c-1,0.1-1.5,0.1-2.1,0.7c-0.4-0.6-1.5-2.7,1.4-4.6C514.5,653.9,516,654.2,517.1,656.8"/>
		<path class="st1" d="M498.2,659c0,0,2.2-1.2,3.1-1.1c-0.5,0.9-1.1,2.4-2.2,2.9c1.6,0.2,4.1,0.3,6-3.9c0.2-1.2,0.8-3.4-3.2-2.8
			C500,654.4,497.2,655.8,498.2,659"/>
		<polygon class="st1" points="494.8,674.3 497.2,669.6 500.7,672.3 498.8,675.8 501.7,678.7 499.7,683.8 496.1,681.4 497.1,677.1 
					"/>
		<path class="st1" d="M492.1,662.3c0,0-2.7-6.8-2.9-10.2c-1.2,3.1-2.9,5.4-3.9,6.8c0,1.8,2.5,23.4,3.3,28.4
			c0.4,2.4,1.1,9.9,0.6,11.7c0.9-1.9,3.7-2.8,2.2-14.3c-0.7-6.8-2-20.6-1.7-22.4C490.8,662.3,491.4,662.4,492.1,662.3"/>
		<path class="st1" d="M480,660.6c0,0-3.1-3.4-4.2-9.5c-1.2,3.7-2.1,5.8-2.9,6.9c0.4,2.2,4.4,22.1,4.9,26.2c0.3,2.2,1.6,4.9-1.6,9.5
			c-0.7-1.8-2-8.6-4.4-11.3c-2.3-2.7-6.7-8.8-19.9-20.3c2.4-0.4,3.1-1,3.1-1s-3.8-3-8.1-6.3c-0.8,1.3-3.3,5.6,4.9,13.4
			c2,2.4,7.3,6.9,14.8,13.9c1.3,1.5,7.5,9.4,7.4,13.1c-0.7,1.3,0.6,2.1-17.4,12.9c3-0.4,16.7-1.8,21.7-14.2c0.9-1.7,3.2-5.4,2.2-14
			c-0.7-4-3.1-19.6-3.1-19.6S479.1,660.6,480,660.6"/>
		<path class="st1" d="M469.3,667.9c0,0-2.7,3.7-0.9,7.1c0.6,0.6,1.9,0.6,2.7-2.3C470,672.8,468.9,672.5,469.3,667.9"/>
		<path class="st1" d="M464,662.3c0,0-0.3-2.8,1.2-6.6c-1.5,1-3.9,2.8-2.5,10.2c0.1,0.4,2.2,1.5,4.1-1.3c0.5-0.9,0.5-1.5-0.6-2.8
			C465.5,662.2,464.7,662.7,464,662.3"/>
		<path class="st1" d="M476.6,702.8c0,0,1.5-1.3,0.6-2.2c-0.6,0-1.5-0.5-2.7,1.7c-0.1,1-0.3,2.5,1.2,2.8c-0.5,1-1.2,3.1,0.7,1.6
			c1.2-1.2,3.1-3.2,3.9-3.9c0-0.6-1-1.2-2.1,0.1C477.7,703.6,476.6,704.9,476.6,702.8"/>
		<path class="st1" d="M447.5,670.6c0,0,1.1,3.8-2.2,3.7c-0.9-0.6-3.4-4,1.4-10.3C446.2,666.2,444.2,673.3,447.5,670.6"/>
		<path class="st1" d="M436.6,701c0,0-2.8,2.5-2.1,8.3c0.3,0.9,2.8,2.5,3.4-1.2c0.2-1.5,0-1.5-1.2-1.8
			C436.4,705.6,435.8,702.9,436.6,701"/>
		<path class="st1" d="M428.8,656.9c0,0,3.9-2,0.5-3.4c-1.2,0.1-2.2,1.2-3.3,4c-1.5-1.2-5.3-4.2-5.2,2c0.9-0.4,2.7-1.5,3.7,0.3
			c1,1.8,1.6,4,1.6,4C426.7,661.4,427.2,657.4,428.8,656.9"/>
		<path class="st1" d="M419.5,652.2c0,0-13.2,5.5-17.7,7.4c-1.5,1-5,3.1-4.4,7.4c0.9,0.4,3.7,1.1,3-2.9c1.3-1.2,1.2-2.2,17.5-8.1
			C419.4,653.5,419.5,652.2,419.5,652.2"/>
		<path class="st1" d="M411,664.1c0,0,0.9-2.7,1.3-1.2c0.4,1.5,1.5,9.8-2.1,8.3c-1.2,0.4-4,2-4.9-2.4c0,0-1.3-4.2,0.8-4.4
			c0.3,0.9,1.3,4.9,2.2,3.1c0.4-0.9,0.8-2.8,0.8-3.8c0,0.1,0.6-0.1,0.9,1.8c0.1,1.6,0.4,2.2,1.2,1C411.3,665.6,411,664.1,411,664.1"
			/>
		<path class="st1" d="M391.4,674.6c0,0-6.5,10.5-12.6-0.6c-1.2,2.1-2.3,3.8-1,7.4c1.2,3.3,3.2,5.2,1.7,7
			c-1.5,1.8-12.5,14.1-26.3,12.9c0,0-10.7,0.8-7.6-12.6c0.9-2.4,1.1-2.7,1.1-2.7s-4.8,2.6-5,11.1c0.1,1.8,1.8,11.1,14,10
			c1.3-0.1,18.7-2.8,26-17.1c0.1-0.6,1.2-3.7,1.1-5.6C384.3,684.4,391.7,684.5,391.4,674.6"/>
		<polygon class="st1" points="386.4,687.4 390.5,688.9 389,694.5 385,692.6 		"/>
		<path class="st1" d="M396.5,703.6c0,0,2.2-0.1,1.6,1.5c-0.5,1.2-1.2,2.7-2.8,0.6c-0.1-1-0.1-4.3,2.3-6.6
			C397.2,700.4,396.2,703.5,396.5,703.6"/>
		<path class="st1" d="M383.6,665.2c0,0,1.4-4.4,2.6-4.9c1-0.1,1.9,0.8,1.5,2.2c-0.5,1-0.9,1-1.6,0.9c-0.6,0.9-1.8,3.2-2.1,6.5
			c-0.9-1.9-0.9-2.5-2.6-3.3c-0.9,0-2.4-0.8-1.3-3.1c0.7-1,1.6-1.5,2.4-0.1C382.3,664.4,382.7,665,383.6,665.2"/>
		<path class="st1" d="M375.1,660c0,0,1.8-2.1,3.6-2c-0.2,0.7-0.6,2.5-2.1,3.7c1.9-0.7,4.4,0.5,6-7.3c-1.6-0.5-2.9-1.7-7.7,1.9
			C374.5,657.6,374.4,658.8,375.1,660"/>
		<path class="st1" d="M365.2,662.2c0,0-3.2-3.6,1.1-6.7c1.3-0.1,4.1,0,2.5,4.5c-0.9,1.8-5.7,10-17.1,11.8
			C354,670.6,365,664,365.2,662.2"/>
		<path class="st1" d="M352.3,658.4c0,0-2.5,1.5-3,9.1c-0.7-2.2-2.7-7.1-5-7.9c-0.7,0.9-3.3,0.7-1.2-3.1c1-0.9,2.1-0.7,3.5,1.1
			c1.2,1.5,1.9,2.5,1.9,2.5c0.6-1.2,0.9-5.9,3.5-6.5c1.2,0.3,2.6,1.7,2.2,3.6C354.1,658.3,354.4,659.6,352.3,658.4"/>
		<path class="st1" d="M332.9,661.1c0,0-3.1-2.2,0.9-6.5c1.6-0.9,3.7-1.2,3.4,2.5c-0.3,1.2-0.6,1.9-1.2,2.5c0.7,0.4,1.3,1.5-0.8,2.4
			c-0.6,0.1-1.2,0.6-1.9,1.3c-0.7,0.7-6.9,6.3-12.6,7.4C322.3,669.3,332.9,662.2,332.9,661.1"/>
		<polygon class="st1" points="358.6,688.2 362.8,690.9 360.7,696.4 356.3,693.8 		"/>
		<path class="st1" d="M351.3,692.9c0,0,2.1-0.3,1.5,2.1c-0.3,1.2-2.5,2.1-2.8-0.6c0,0-0.4-5.2,1.5-7.1
			C351.3,688.7,350.4,693.2,351.3,692.9"/>
		<path class="st1" d="M334.7,697.5c0,0,0.3-2.8-0.3-2.8c-0.6,0.2-0.9-0.7-2.2,3.2c-0.5,1.6-0.3,2.5,0.6,2.7
			c-1.1,1.9-2.6,5.5,0.1,6.4c1,0.2,4.9-0.7,6.7-4.8c0,0-3.9,2.2-4.9,1c-0.4-0.6-0.6-2.1,1.4-3.5c1.3-0.9,2.1-2.1,1.1-2.8
			C336.3,697.3,334.8,698.6,334.7,697.5"/>
		<path class="st1" d="M305.2,672.5l1.2-2.2c0,0-4.9-1.2-8.1-3c-0.5,1.9-2.1,5,1.3,7.5c3.4,2.4,10.7,7.2,12.8,8.1
			c-1.4,1.6-5.4,5.7-19.1,13.1c-1,0.4-5.8,0.4-2-8.7c-1.6,1.2-5.2,7.1-1.7,13.4c1.3,0.9,3.5,2.7,16.2-6.5c2.8-1.8,8.9-5.1,9.4-10.6
			c0.3-1.3,0.5-5-2.5-7.1C310,675.2,306.8,673.3,305.2,672.5"/>
		<path class="st1" d="M314.4,695.7c0,0,1.8,0.9,0.9,2.5c-0.7,0.9-1.9,1.5-2.7-1.5c0-1.2,0.5-3.7,2.1-5.5
			C314.6,692.8,313.8,695.8,314.4,695.7"/>
		<path class="st1" d="M303.3,683.7c0,0,2.2,1.1,0.6,3c-0.9,0.9-2.8,0.9-2.9-1.5c0-1.8,1.2-4.3,2.7-5.9
			C303.3,680.9,302.4,683.9,303.3,683.7"/>
		<path class="st1" d="M312.6,669.8c0,0,2.5-0.4,1.3,2.5c-0.6,1-1.9,1.9-3-0.7c-0.3-1.5-0.1-4.9,2-8
			C312.3,665.5,312,670.1,312.6,669.8"/>
		<path class="st1" d="M324.9,660c0,0,2.2,0.2,1.2,2.5c-0.7,1.3-3,2.1-3.2-1.5c0.3-1.8,1.2-5,2.4-6.4
			C324.8,656,324.4,660.5,324.9,660"/>
		<path class="st1" d="M302.5,658.4c0,0,2.1-1.8,3.7-1.3c-0.4,1.2-1.6,2.6-3.6,3.5c1.2,0.4,3.8,0.8,6.8-2.5c0.9-1.9,1.1-3.8,1.1-3.8
			s-2.6-1.9-7.4,0.4C302.2,655.6,302.3,657.7,302.5,658.4"/>
		<path class="st1" d="M294.1,662.9l2.9,1.7c0,0-3.3-7.6-4.9-12.2c-1.2,1.8-3,3.5-2.3,9.4c0.7,5.9,4.1,28,4.1,28s1.5,11,1.2,15.1
			c1.1-1.5,3.3-4.7,1.8-17.3C295.4,675.1,293.7,664,294.1,662.9"/>
		<path class="st1" d="M284.7,662.9l2.5,1.2c0,0-3.3-7.6-5.5-12.8c-1.2,2.4-2.4,3.4-1.7,8.1c0.7,4.7,3.4,28.6,3.6,30.8
			c-0.3,2.4-1.8,6.7-15.7,15.8c2.2,0.2,13.7,0.9,18.5-15.7c0,0,1.1-3.1,0-12.1C285.2,669.2,284.4,663.6,284.7,662.9"/>
		<path class="st1" d="M274.8,664.3c0,0-3.3,2.2-2.7-0.6c0.6-2.8,1.7-6.8,2.9-9.3c-2.4,2.2-6.3,8.7-4.4,13.1c0.4,1.3,1.6,3,3.8,0.2
			C275.2,666.8,275.6,664.9,274.8,664.3"/>
		<path class="st1" d="M258.7,659.7l3.4-0.6c0,0-7.9-4.2-9.6-6c-0.9,1.3-2.7,4,1.4,8.6c4.1,4.6,19.2,18.8,22.4,21.8
			c1.8,2.1,5.1,7.3,5.2,12.6c0.2-3.7,1.3-9.3-3.3-16.2C274.8,675.5,261.8,662.7,258.7,659.7"/>
		<path class="st1" d="M273.5,691c0,0-2.2,1.6-2.4,3.7c0,1.8,0.3,3.1-1.2,2.7c-0.7-0.3-1.9-2.1-1.6-4.6c-1.2,2.5-2.9,6.8-6,6.5
			c-1,0.1-3.8,0.4-4.4-5.5c-1.6,1.8-5.2,6.5-8.2,5.7c-0.9,0-4,1-5.5-8.6c0,0,1.1-23.7-4-36.9c0,0-2.4,2.7-2.1,5.6
			c0.4,2.4,3.7,17.3,3.3,24.6c-0.3,2.7-0.4,13.3-19.1,22.6c0,0,13.5,0.7,19.3-12.1c0,0,0.6,1,0.9,3.1c0.3,2.1,1.5,9.3,7.6,7.2
			c0.9-0.3,4.3-2.6,5.7-4.8c1.3,2.5,4.1,8.6,10.5,0.5c1,1.2,5.1,3.7,7.6-2C274.3,697.4,275.4,693.1,273.5,691"/>
		<path class="st1" d="M284.5,701.8c0,0,1.6-1.5,0.8-2.4c-0.9-0.3-1.6,0-3.1,2.8c-0.3,1.2,0.4,2.4,1.5,2.7c-0.3,1-0.5,2.9,1.3,1.2
			c1.2-1.3,2.8-3.4,3.6-3.8c0.2-0.6-0.3-1.8-1.9-0.2C285.7,703.1,284.2,704.4,284.5,701.8"/>
		<path class="st1" d="M251.8,667.3c0,0,2.5,0.3,2.1-2.1c-0.3-1.3-2.5-2.2-4,2.5c-0.7-0.7-1.9-3.3-3.8-1.7c-0.6,0.7-1.2,3.1,1.2,3.1
			c1,0.3,2.1,2.1,2.3,4.6C250.1,671.7,250.9,667.6,251.8,667.3"/>
		<polygon class="st1" points="209.7,676 211.8,672.1 207.7,668.8 209.5,663.7 213.9,666.5 212.6,670.7 215.9,674.3 213.7,679.3 		
			"/>
		<path class="st1" d="M212.6,684.3c0,0,3-0.3,1.7,2.8c-0.9,1.2-3,1.6-3.5-1.2c0-1.8,0.2-4.3,1.5-6
			C212.2,681.6,212,684.7,212.6,684.3"/>
		<polygon class="st1" points="224.3,698.6 220.6,696.2 217.9,701.3 222.5,704.3 225,700.4 229.6,702.2 231.1,697.6 226.4,695.2 		
			"/>
		<path class="st1" d="M269.2,685.1c0,0,1.9-1.2,1.9,0.6c0,1.2-0.6,3.1-2.4,2.5c-0.9-0.3-3.2-1.7,0.5-9
			C269,680.9,268.5,685.7,269.2,685.1"/>
		<path class="st1" d="M225.4,656c0,0-0.7-2.7,0-3.5c0.7,0.3,4.4,2.2,6.7,10.1c-0.2,1.5,0.3,3.9-1.2,6.1c-0.1-1.5,0.1-5.9-2-8.2
			C226.9,658.2,225.4,656,225.4,656"/>
		<path class="st1" d="M219.4,661.8l1.2-1.9l-7.6-6.4c0,0-3.4,5.1,1.7,10.5c3.4,2.5,22.8,17.8,24.8,24.3c1.1-2.2,3.7-3.1-1.8-9.5
			C233.7,674.5,224.9,665.4,219.4,661.8"/>
		<path class="st1" d="M516.6,690.1c0,0,0.9-1,3.9-0.6c-0.3,1-1.4,1.8-1.9,2.8C518.6,692.3,517.4,690.8,516.6,690.1 M532.5,694.9
			c0,0,0.7-6.7,2.9-6.3c0.9,0.3,0.9,2.3,0.5,3.8C535.5,693.5,535.5,694.6,532.5,694.9 M530.6,695.5c0,0,1.7-9.9,4.8-12.4
			c0.9-0.4,2.8,0.8,3.5,4c0.1,1.8,0.4,6.1-2.1,9.6c-1.4,1.6-3.7,3.5-6.1,4.2c-0.3,1.8-1.2,4.9-1.2,4.9l-0.8-4.4
			c0,0-5.9,1.7-10.6-4.1c0,0-6.1,5.1-9.8,6c-1.2,0-4.1-0.2-7.2-6.6c-1-0.4-5-0.8-7,4.7c-1.4,2.9-3.2,7.1-5.2,7.4
			c-1.3,0.1-3.3,0.4-5.1-4.5c-0.6-1.9-0.7-6.7,0.7-10.3c0.3,2.4,1.1,9.5,3.9,9.1c0.7,0.1,3-0.3,4.5-4c1.1-2.2,6.6-12.5,10.7-5.8
			c1.2,1.6,5.3,7.9,10.8,1.3c-0.4-0.9-2.2-3.4-6.5-1.1c-0.1-1.5-1.6-5.8,7.9-8.7c1.9-0.3,7.4-1.4,12.4,0.7c0.1,1.5-0.5,4.3-0.5,4.3
			s-3.6,2.5-5.2,5C523.5,695.6,525.8,697.5,530.6,695.5"/>
		<path class="st1" d="M553.2,696.6c0,0-2.2-7.6,1.5-7.8c2.2,0.2,7.8,0.8,14.8,4.1C567.6,693.7,559.4,699.3,553.2,696.6
			 M549.5,695.6c0,0-0.1-9.9,3.7-11.5c1-0.6,3.9-2.6,12.8,1.6c2.8,0.8,11.1,3.4,15.5,3.1c-0.5,2.8-1.4,5.5-1.4,5.5s-3.6-0.6-9.1,2.7
			c-2.5,1.4-5.8,3.9-15.4,6.5c-0.6,3.1-1.4,4.4-2.1,3.2c-0.1-0.9,0-1.8-0.1-2.7c-1.6-0.2-6.5,0.7-8.9-10.4c0,0-2.1-13.3-2.4-25.6
			c-0.7-2.5-2.5-6.8-1.4-9.8c1.1-2.8,2.4-4.6,3-5.3c0.7,3.4,1.6,8.9,1.8,17.2C545.7,673.9,547.3,695.8,549.5,695.6"/>
		<path class="st1" d="M459.2,697.5c0,0,0.6-3.6,1.5-1.9c0.6,1.2,2.2,2.2,0.7,3C460.3,698.6,458.8,699.7,459.2,697.5 M454.2,698.4
			c0,0,2.7-3.2,3.6-5.9c1.1-1.6,3.7-4.2,5.8-0.4c1.7,3.3,3.1,5.4,2,7.4c-1.1,1.8-2.3,4.7-9.5,2.9c-1.6,0.6-2.4,0.9-7.3,3.3
			c-1.8,0.7-8.6,2.7-11.6-7.8c-0.7-3.4-1-8.7-2.6-35.5c0,0-1-0.3-2.4,1.2c0.3-2.1,0.3-4.6,4.6-7.6c0.4,3.6,1.2,10.1,1.9,24.1
			c0,3.4-0.7,14.9,3.2,18.5C442.9,699.7,447.6,703.9,454.2,698.4"/>
		<path class="st1" d="M451.5,684.7c0,0-0.2-3.3,1.7-3.2c1,0.5,1.9,1.4,1,2.3C453.3,684.4,452.1,684.7,451.5,684.7 M447.9,685.9
			c0,0-1.4-9.5,2.9-9.3c1.8,0.3,6.6,2,9,4.7c-0.3,2.8-0.5,6.1-0.5,6.1s-7.9,1.9-15.9,5.6c-1.9,1.3-8.5,6.1-13.3,12.5
			c-0.9,1.5-3.9,4.3-7.4,1.7c-1.2-1.3-5.9-4.8,2.2-16.8c-0.9,2.5-4.8,9.9-0.1,12.1c1,0.3,3.4,0.3,6.2-3.2
			C432.9,697.1,435.8,691.4,447.9,685.9"/>
		<path class="st1" d="M421.4,674.2c0,0-1.7-4,0.9-3.2c1.6,0.5,3,0.9,1.6,2.5C423.1,674.1,422.9,674.3,421.4,674.2 M417.4,676
			c0,0-3.2-8.9,3.3-10.9c1.6,0.2,7.5,2.1,8.8,5.9c0,1.5-0.1,5.9-4.3,6.9c-2.2,0.7-10.1,3.2-11.3,6.6c3.6-0.1,20.3-1.7,20.3-1.7
			s-0.2,2.8-2.9,5.2c-2.4,0.7-16.8,4.7-21.8,7.8c-0.3,1-1.8,3.2,6.6,6.3c-1.5,5.9-1.4,6.2-1.4,6.2l-5.9-2.1c0,0-6-1.2-9.9-13.3
			c0,0-0.8,7.2-14.3,13.5c-1.5,0.9-11.3,5.8-13.7-5.1c0,0-0.8-5.5,3.9-10.8c-0.5,2.7-3.4,11.8,2.6,12.1c0,0,4.7,0.6,11.4-4.2
			c1.5-1.2,8.6-4.5,9.1-9c-0.4-2.1-5-14.5-6.6-19.1c2-4.7,2.1-4.9,2.1-4.9s2.3,2.8,8.1,22.1c0.6,2.4,2,8.4,4.9,10.2
			c0.9-1.8,1.8-5.2,5.7-7.6c-2.4,0-5.9-0.2-8.9-0.1c0,0,0.3-5,2.4-7.7C407,681.7,414.7,676.9,417.4,676"/>
		<path class="st1" d="M321.4,687c0,0,0.5-3.3,1.5-2.7c0.6,0.5,2.4,1.2,1.5,2.2C323.5,687.2,322.3,687.3,321.4,687 M335.3,677.8
			c0,0,3.4-2.1,6.5,0.1c-0.9,1.2-2.2,1-2.8,1.8C338.2,679.3,337.2,678.4,335.3,677.8 M373.5,673.8c0,0-1.5,0.3-2.1,3.4
			c-0.2,1.5,0,3.2-1.2,3.2c-0.9,0-4-0.8-2-4.6c-1.2,0.9-2.7,2.8-3.9,4.5c-0.7,0.7-4.2,3.1-6.5,0.7c-0.6-0.7-1.6-2.8-1.3-4
			c-1.8,1.8-6.6,6.2-9.5,7c-0.9,0.1-4.1,0.1-2.9-2.1c1.6-0.9,4.2-2.3,4.9-2.5c0.5-1.5,0-4.3,0-4.3s-7.8-4.2-20.3-0.5
			c-0.9,1.2-2.1,5.6-2.1,5.6s6.4-0.4,7.1,1.8c-0.6,1-2.8,3.5-5.2,2.2c-0.7-0.9-3.2-5.6-6.5-5.4c-1.6,0.7-4.9,4.8-4.2,11.9
			c0.6,0.7,4.3,1.7,7.4-1c0.9,0.6,1.9,2.1,1,3.7c-0.9,1.2-8.1,8.7-18.4,11.1c-1.2,0.1-7.4-0.5-3.4-11.9c-2.1,3.1-5.8,7.9-2.4,15.1
			c0.9,1.1,4.3,4,10.8,0.5c6.5-3.5,14.1-8,15.5-12.7c0.6-1.3,1.2-4.9,0.8-6.5c1.3-0.4,7.7-2.4,9-3.3c1.6,1.6,6.9,6.4,16.1-3.1
			c1.3,2.2,3.9,8,11.2,0.7c1.5,1.5,5.7,4.8,8.6-3.3C374.5,678.4,375.1,677.1,373.5,673.8"/>
		<path class="st1" d="M258,686.2c0,0,0.2-3,1.6-2.8c0.9,0.9,2,1.8,1.2,3.4C259.8,687.2,258.6,687.2,258,686.2 M254.1,686.7
			c0,0-0.4-4,4.5-8.8c1.6-0.1,2.5-0.1,4.3,3.7c1.2,2.7,2.9,6.2-0.2,9.5c-1.2,0.1-2.1,1-7.1-1.4c-1.5,1.5-2.8,2.5-3.6,3.2
			c-0.7,0.6-4.5,2.5-5.6-5.8c-1.6,1.9-16.7,14-24.3-0.2c0,0-1.3-1.8-3.9,2.8c0,0-2.1,5.2-3.8,8.6c-1.1,1.5-3.1,4-6.2-1.2
			c-1.3-2.8-3-8.9,0.9-13.2c0,2.1-0.7,9.6,1.7,10.5c0.9,0.3,3.4,1.4,4.9-2.6c1.1-2.2,2.7-9.2,6.3-10.8c0.9,0,2.1,0.9,3.5,3.1
			c1,1.6,5.7,11.3,23.6-3.6c0,1.2,0,2.4-0.5,4C248.8,685.9,250,690.8,254.1,686.7"/>
		<path class="st1" d="M432,171.8c0,0-21.4-12.7-51.9,25.6c-0.7-1.2-3.1-7.8-7.8-4c-1.3,1.3-3.7,4.7,3.1,6.7
			c-0.1,1.3-2.1,4.6-6.1,2.1c-1.5-1.6-6.2-6.7-9,0.6c-0.3,1.8-2.1,5.9,5,8c1.2,0.3,8.7,2.8,16.1-4.4c2.1,2.4,5.6,5.6,9.2,0.7
			c0.1-1,0.9-5-5.2-4.7c-0.7,0-2.5-0.7-0.3-2.7C387.3,197.7,403.9,174.7,432,171.8"/>
		<path class="st4" d="M390.6,166.8c0.2-0.6,0.6-1.2,1.3-2l0.5-0.5l0.1-0.7c0.3-3.2,0.3-26.5-0.2-28.8l-0.1-0.5
			c-0.8-1-4.4-5.3-9.7-3c0.1-1.5,0.5-2.4,1.2-3l5.9-4.6l-7.4,0.9c-1.1,0.1-2.3,0.6-3.2,1c0.2-1.2,0.9-2.7,2.7-3.8l4.8-3l-5.6-0.9
			c-0.8-0.1-1.5-0.2-2-0.3c0.3-0.8,1.2-2.2,4.9-3.5l2.9-1l-2-2.3c-0.6-0.7-1-1.2-1.2-1.5c1.4-1.1,4.2-2.5,10.4-4.1
			c0.1,0,0.3,0,0.7,0c0.6,0,1.5,0.1,2.6,0.4c1.8,0.5,4.3,1.7,7.1,4.5c-0.3,0.2-0.5,0.4-0.7,0.6c-0.3,0.3-0.5,0.6-0.7,0.8l-0.3,0.6
			l-0.4,0.9l-0.8,1.9c0,0,3.2,0.1,3.4,0.1c0.2,0,0.5,0.1,1,0.3c0.4,0.1,0.8,0.4,1.3,0.8c-1.5,0.3-4.7,1.2-4.7,1.2l3.8,2.5
			c0.1,0.1,2.7,1.9,3.1,5c-0.9-0.5-1.8-0.8-2.5-1c-0.7-0.2-1.4-0.2-1.8-0.2c-0.3,0-1.3,0.3-2,0.5c-0.8,0.2-2.3,0.7-2.3,0.7l2.5,2.5
			c0.5,0.5,1.8,2.1,2.4,3.4c-0.8-0.3-1.7-0.5-2.6-0.6c-2.2-0.2-4.8,0.6-5.7,3.8l-0.1,0.4c-0.1,4.2-0.5,25.5,0,28.7l0.1,0.6l0.4,0.5
			c0.5,0.5,1.1,1.3,1.3,2c0.1,0.4,0.1,0.6-0.2,0.9c-0.9,0.2-2.3,0.5-3.8,0.5c-1.7,0.1-3.1-0.1-4-0.6L390.6,166.8z"/>
		<path class="st4" d="M371.1,171.9c0.9,0.1,1.9,0.2,2.9,0.4c8.5,1.5,21.1,7.5,36.1,26.4l1.9,2.3l1.6-2.5c0.2-0.3,0.5-1,0.9-1.8
			c0.4-0.7,0.8-1.3,1.2-1.8c0.6-0.7,1.2-1,2.5,0c0.2,0.2,0.5,0.5,0.6,0.8c0.2,0.3,0.2,0.4,0.2,0.5c0,0.2-0.4,0.9-3.1,1.7l-1.7,0.5
			l0.2,1.8c0.2,2.1,3.3,7.4,9.3,3.6c0.7-0.7,1.2-1.2,1.8-1.8c0.6-0.5,1.2-0.9,1.7-1c0.4-0.1,0.6-0.1,0.9,0c0.3,0.2,0.9,0.7,1.4,2.2
			c0.1,0.4,0.2,0.9,0.3,1.4c0.1,0.5,0.1,0.9,0,1.3c-0.2,0.6-0.7,1.7-3.9,2.7c-0.3,0.1-0.9,0.2-1.7,0.4c-0.9,0.1-2,0.2-3.2,0.1
			c-2.5-0.2-5.8-1.2-9.1-4.4l-1.6-1.6l-1.5,1.7c-1.1,1.2-2.1,2.2-3.1,2.5c-0.5,0.2-1.3,0.3-2.5-1.2l0-0.4c0-0.3,0.1-0.6,0.1-0.7
			c0-0.1,0.1-0.3,0.5-0.4c0.4-0.2,1.2-0.4,2.5-0.3c0.7,0,2.2-0.5,3-1.5c1.1-1.4,0.6-3.2-1.3-4.8c-0.1-0.1-0.5-0.5-1.3-1.4
			c-0.7-0.8-1.7-1.9-2.9-3.2c-2.4-2.5-5.6-5.7-9.7-9C388.3,179.7,380.6,174.8,371.1,171.9"/>
		<path class="st4" d="M397.5,184.4c-4.1,3.3-7.3,6.5-9.7,9c-1.2,1.2-2.1,2.3-2.9,3.2c-0.8,0.9-1.2,1.3-1.3,1.4
			c-1.9,1.7-2.4,3.4-1.3,4.8c0.8,1.1,2.3,1.5,3,1.5c1.3-0.1,2.1,0.1,2.5,0.3c0.4,0.2,0.5,0.3,0.5,0.4c0.1,0.2,0.1,0.4,0.1,0.7l0,0.4
			c-1.2,1.4-2,1.3-2.5,1.2c-1-0.3-2-1.3-3.1-2.5l-1.5-1.7l-1.6,1.6c-3.3,3.2-6.6,4.2-9.1,4.4c-1.3,0.1-2.4,0-3.2-0.1
			c-0.9-0.2-1.5-0.4-1.8-0.4c-3.1-0.9-3.6-2.1-3.8-2.6c-0.1-0.4-0.1-0.8,0-1.3c0.1-0.5,0.2-1,0.3-1.4c0.6-1.4,1.1-2,1.4-2.2
			c0.3-0.2,0.5-0.2,0.9,0c1.1,0.4,2.3,1.6,3.1,2.4c6.3,4.1,9.5-1.1,9.7-3.3l0.2-1.8l-1.7-0.5c-2.8-0.8-3.1-1.6-3.1-1.7
			c0-0.1,0-0.3,0.2-0.6c0.2-0.3,0.4-0.5,0.6-0.8c1.3-1,1.9-0.7,2.5,0c0.4,0.5,0.9,1.1,1.2,1.8c0.4,0.8,0.7,1.4,0.9,1.8l1.6,2.5
			l1.9-2.3c15-18.9,27.6-24.9,36.1-26.4c1-0.2,2-0.3,2.9-0.4C411.2,174.8,403.5,179.7,397.5,184.4"/>
		<path class="st5" d="M385.1,73c0,0,10-11.5,21.7-0.4c11.8,11.1,199.3,197.7,199.3,197.7s4.9,4.2,5.1,14c0.2,9.8,0,423.6,0,423.6
			s0,14.6-14.6,14.9c-14.6,0.2-402.3,0-402.3,0s-12.4,0-12.4-12.7V287.6c0,0-1.8-5.3,7.3-14.6C198.3,263.6,385.1,73,385.1,73
			 M368.7,61.5c0,0,12-13.8,28.6-14.2c0,0,14-1.8,27.7,12.4c13.8,14.2,197.3,199.1,197.3,199.1s10,9.1,10.4,22
			c0.4,12.9,0,441.4,0,441.4s0.2,20.9-18.6,21.1c-18.9,0.2-432.9,0-432.9,0s-22.9,2.2-22.9-22.9c0-25.1,0.4-432.9,0.4-432.9
			s-2-11.1,10.9-24.4C182.5,249.7,368.7,61.5,368.7,61.5"/>
		<polygon class="st2" points="493.7,598.2 482.3,598.2 482.3,606.3 476.4,606.3 476.4,610.3 493.7,610.3 493.7,606.3 487.2,606.3 
			487.2,601.9 493.7,601.9 		"/>
	</g>
</g>
</svg>
